<?xml version="1.0" encoding="utf-8"?>
<svg version="1.0" id="Layer_1" x="0px" y="0px" viewBox="37.5 112.207 224.534 55.898" enable-background="new 0 0 300 280" xmlns="http://www.w3.org/2000/svg">
  <g>
    <path fill-rule="evenodd" clip-rule="evenodd" fill="#144A8F" d="M141.45,134.09l0.23-0.52c0.3-1.41-0.66-7.9-0.89-9.19 c-2.94-0.47-2.7,1.14-7,0.01c-22.13-5.81-25.95,9.99-19.61,14.56c6.25,4.5,21.17,5.54,23.02,10.28 c2.84,7.28-12.69,11.51-20.54,3.43c-2.99-3.09-4.1-8.02-6.09-5.78c-0.74,0.84,2.54,9.41,2.63,9.56c0.96,1.71,4.35,1.67,6.24,2.05 c4.74,0.96,10.36,1.38,14.95-0.07c10.04-3.18,12.32-14.21,2.32-18.82c-3.85-1.78-8.22-2.74-12.39-4.11 c-1.94-0.64-4.51-1.48-5.74-2.52c-1.86-1.57-1.53-4.46,0.09-5.85c3.55-3.04,12.71-3,18.4,3.22 C138.35,131.77,139.04,135.18,141.45,134.09L141.45,134.09z M141.45,134.09"/>
    <path fill-rule="evenodd" clip-rule="evenodd" fill="#144A8F" d="M148.18,129.22l1.16,0.93c0.48,0.24,0.84,0.28,1.32,0.57 c2.22,1.37,1.38,7.32,1.38,10.87c0,3.14,0.61,9.71-0.86,11.09c-0.68,0.64-0.56,0.35-1.16,0.71c-1.45,0.87-0.76,0.05-1.15,1.36 c3.12,0.23,7.29-0.02,10.59,0.03c3.52,0.06,6.25,0.18,8.92-1.72c3.36-2.39,5.68-10.64-2.67-12.73c1.74-1.42,3.8-1.84,3.74-5.41 c-0.13-8.35-11.53-5.98-18.88-6.18C148.3,128.68,148.69,128.78,148.18,129.22L148.18,129.22z M157.14,130.72 c-0.71,2.17-0.84,6.73-0.24,9.03c4.02,1.35,8.73,0.72,8.22-4.49C164.77,131.63,160.78,129.25,157.14,130.72L157.14,130.72z M157.45,142.1c-1.27,0.73-1.09,8.08-0.39,9.51c1.2,2.48,5.94,2.1,7.77,0.42c2.71-2.49,2.79-8.52-2.45-9.84 C161,141.84,158.59,141.43,157.45,142.1L157.45,142.1z M157.45,142.1"/>
    <g>
      <path fill-rule="evenodd" clip-rule="evenodd" fill="#144A8F" d="M90.84,123.82c0.54,3.11,7.25-1.11,7.38,6.33 c0.07,3.83,0.21,25.2-0.14,27.56c-0.31,2.05-1.32,3.48-3.62,2.54c-1.92-0.78-2.02-2.48-4.19-2.95c-1.39,0.96-2.62,3.36-2.02,5.28 c1.72,3.76,16.98,1.49,17.93-10.83c0.56-7.25-0.32-16.94,0.05-23.82c0.14-2.69,1.24-2.19,2.95-2.96c1.28-0.58,0.84-0.24,1.15-1.32 c-2.2-0.73-6.88-0.09-9.58-0.12C98.44,123.51,92.5,122.76,90.84,123.82L90.84,123.82z M90.84,123.82"/>
      <path fill-rule="evenodd" clip-rule="evenodd" fill="#FDB614" d="M46.85,148.55c10.37,0,8.61,0.71,14.22-4.74 c3.33-3.24,28.17-27.39,28.91-28.91c-10.64,0-8.66-0.65-14.28,4.81c-3.35,3.26-6.43,6.32-9.73,9.63 C63.36,131.95,47.69,147.07,46.85,148.55L46.85,148.55z M46.85,148.55"/>
      <path fill-rule="evenodd" clip-rule="evenodd" fill="#F47B20" d="M44.81,165.09c9.07,0.02,9.19,0.85,15.83-6.18 c1.19-1.27,2.66-2.75,3.9-4.03c3.73-3.82,17.44-16.85,19.92-19.85c-5.01-0.12-8.79-0.92-11.89,2.17 c-7.85,7.84-16.15,15.74-23.86,23.73C47.51,162.17,45.41,164.09,44.81,165.09L44.81,165.09z M44.81,165.09"/>
      <path fill-rule="evenodd" clip-rule="evenodd" fill="#144A8F" d="M232.52,128.89c0.12,0.99-0.6,0.38,0.76,1.08 c0.51,0.26,0.85,0.17,1.46,0.43c2.45,1.05,1.54,6.93,1.54,10.87c0,18.14-1.26,9.13-2.95,13.48l11.18-0.01 c-1.02-2.61-3.69,0.49-3.66-5.54c0.02-4.03-0.54-4.68,2.28-6.57c0.68,1,8.18,11.42,9.03,11.89c0.73,0.4,5.95,0.36,6.61,0.08 c-0.37-1.16-0.61-0.76-1.8-1.38c-0.87-0.46-1.28-0.88-1.83-1.63c-1.01-1.36-1.85-2.56-2.94-4.06c-1.24-1.71-5.25-6.48-5.71-8.16 c0.73-0.8,1.73-1.97,2.59-2.71c2.49-2.13,5.49-5.3,7.86-6.43c1.19-0.57,1.25-0.28,1.46-1.34c-0.85-0.36-8.28-0.29-9.21-0.1 c0.31,1.76,0.53,0.81,2.19,1.74c-0.04,2.48-4.99,6.39-7.37,8.65c-0.92,0.87-1.79,2.23-3.12,2.73c-0.09-2.52-0.02-5.1-0.03-7.63 c-0.03-6.42,1.97-3.16,2.57-5.39C242.73,128.55,233.29,128.55,232.52,128.89L232.52,128.89z M232.52,128.89"/>
    </g>
    <path fill-rule="evenodd" clip-rule="evenodd" fill="#144A8F" d="M201.68,128.83c0.73,2.48,4.1,0.26,4.1,7.37v11.74 c0,6.99-3.58,4.18-3.34,6.83l9.72-0.02c-0.19-1.35,0.74-0.47-0.89-1.2c-1.03-0.46-2.75-0.05-3.4-2.9 c-0.5-2.22-0.26-12.37-0.23-15.75c1.53,0.61,12.68,13.42,14.64,15.25c1.3,1.21,3.29,4.65,5.44,4.92c0.06-4-0.43-22.26,0.44-23.79 c1-1.78,2.2-0.66,2.61-2.38c-0.74-0.32-8.62-0.33-9.27,0c0.43,2.31,4.44,0.19,4.44,5.4c0,3.8,0.25,8.94-0.25,12.56 c-1.02-0.58-13.42-14.35-15.3-16.55c-1.25-1.46-1.15-1.74-3.64-1.61C205.66,128.75,202.17,128.51,201.68,128.83L201.68,128.83z M201.68,128.83"/>
    <path fill-rule="evenodd" clip-rule="evenodd" fill="#144A8F" d="M173.17,154.57c0.71,0.33,8.62,0.36,9.83,0.14 c-1.4-2.62-5.87,0.04-3.08-6.94c0.89-2.23,1.35-2.06,3.96-2.04c2,0.01,4.02-0.05,6.02,0.07c1.09,1.33,2.53,4.31,2.22,6.68 c-1.11,0.74-2.13,1.07-2.49,2.12c0.86,0.3,10.39,0.29,11.32-0.02c-0.56-1.77-1.5-0.19-2.83-2.17c-1.51-2.27-9.44-22.69-11.06-24.39 c-1.24,0.52-0.7,0.55-1.89,3.14c-0.55,1.19-1.03,2.36-1.57,3.5c-1.1,2.3-2.09,4.57-3.15,6.99c-1.07,2.44-2.15,4.74-3.13,7.04 C174.4,155.54,174.28,152.35,173.17,154.57L173.17,154.57z M173.17,154.57"/>
    <path fill-rule="evenodd" clip-rule="evenodd" fill="#FDB614" d="M41.23,139.82c9.81,0.64,9.94-0.29,14.83-5.16 c0.94-0.94,9.71-9.61,10.08-10.44c-10.76,0.16-9.1-0.47-14.88,5.33C50.1,130.71,41.82,138.55,41.23,139.82L41.23,139.82z M41.23,139.82"/>
    <path fill-rule="evenodd" clip-rule="evenodd" fill="#F47B20" d="M65.39,159.17l6.48,0.08c4.1,0.01,6.1-3.16,9.85-6.85 c1.47-1.45,7.7-7.07,8.48-8.8c-10.62,0.19-8.48-0.8-16,6.67C72.87,151.56,65.89,158.17,65.39,159.17L65.39,159.17z M65.39,159.17"/>
    <path fill-rule="evenodd" clip-rule="evenodd" fill="#FFFFFF" d="M182.12,143.67l6.89,0.03c0.4-1.39-2.83-7.92-3.54-8.51 C184.97,135.81,181.86,142.28,182.12,143.67L182.12,143.67z M182.12,143.67"/>
  </g>
</svg>